<svg xmlns="http://www.w3.org/2000/svg" viewBox="0 0 520 280" width="520" height="280">
  <defs>
    <linearGradient id="bg" x1="0%" y1="0%" x2="100%" y2="100%">
      <stop offset="0%" style="stop-color:#0f172a"/>
      <stop offset="100%" style="stop-color:#1e293b"/>
    </linearGradient>
    <linearGradient id="box" x1="0%" y1="0%" x2="0%" y2="100%">
      <stop offset="0%" style="stop-color:#334155"/>
      <stop offset="100%" style="stop-color:#1e293b"/>
    </linearGradient>
    <linearGradient id="acc" x1="0%" y1="0%" x2="0%" y2="100%">
      <stop offset="0%" style="stop-color:#4f46e5"/>
      <stop offset="100%" style="stop-color:#3730a3"/>
    </linearGradient>
  </defs>
  <rect width="520" height="280" fill="url(#bg)"/>
  <rect x="10" y="20" width="90" height="50" rx="8" fill="url(#box)" stroke="rgba(148,163,184,0.5)" stroke-width="1"/>
  <text x="55" y="50" text-anchor="middle" fill="#e2e8f0" font-family="system-ui,sans-serif" font-size="11" font-weight="600">Upload</text>
  <text x="55" y="63" text-anchor="middle" fill="#94a3b8" font-family="system-ui,sans-serif" font-size="9">Video / Image</text>
  <path d="M 105 45 L 130 45" stroke="#64748b" stroke-width="2"/>
  <polygon points="130,42 138,45 130,48" fill="#64748b"/>
  <rect x="145" y="20" width="100" height="50" rx="8" fill="url(#acc)" stroke="rgba(129,140,248,0.5)" stroke-width="1"/>
  <text x="195" y="48" text-anchor="middle" fill="#fff" font-family="system-ui,sans-serif" font-size="12" font-weight="700">FastAPI</text>
  <text x="195" y="62" text-anchor="middle" fill="#c7d2fe" font-family="system-ui,sans-serif" font-size="9">Backend</text>
  <path d="M 250 45 L 280 45" stroke="#64748b" stroke-width="2"/>
  <polygon points="278,42 286,45 278,48" fill="#64748b"/>
  <rect x="285" y="20" width="100" height="50" rx="8" fill="url(#acc)" stroke="rgba(129,140,248,0.5)" stroke-width="1"/>
  <text x="335" y="48" text-anchor="middle" fill="#fff" font-family="system-ui,sans-serif" font-size="12" font-weight="700">YOLOv8</text>
  <text x="335" y="62" text-anchor="middle" fill="#c7d2fe" font-family="system-ui,sans-serif" font-size="9">Hull Model</text>
  <path d="M 390 45 L 420 45" stroke="#64748b" stroke-width="2"/>
  <polygon points="418,42 426,45 418,48" fill="#64748b"/>
  <rect x="425" y="20" width="85" height="50" rx="8" fill="url(#box)" stroke="rgba(148,163,184,0.5)" stroke-width="1"/>
  <text x="467" y="48" text-anchor="middle" fill="#e2e8f0" font-family="system-ui,sans-serif" font-size="11" font-weight="600">Detections</text>
  <text x="467" y="62" text-anchor="middle" fill="#94a3b8" font-family="system-ui,sans-serif" font-size="9">Boxes + Risk</text>
  <!-- Down arrow to DB -->
  <path d="M 467 75 L 467 105" stroke="#64748b" stroke-width="2"/>
  <polygon points="464,102 467,112 470,102" fill="#64748b"/>
  <rect x="397" y="118" width="140" height="44" rx="8" fill="url(#box)" stroke="rgba(34,197,94,0.4)" stroke-width="1"/>
  <text x="467" y="138" text-anchor="middle" fill="#e2e8f0" font-family="system-ui,sans-serif" font-size="11" font-weight="600">Neon Postgres</text>
  <text x="467" y="152" text-anchor="middle" fill="#94a3b8" font-family="system-ui,sans-serif" font-size="9">inspections table</text>
  <!-- Labels below -->
  <text x="55" y="195" text-anchor="middle" fill="#94a3b8" font-family="system-ui,sans-serif" font-size="10">1. Upload</text>
  <text x="195" y="195" text-anchor="middle" fill="#94a3b8" font-family="system-ui,sans-serif" font-size="10">2. API</text>
  <text x="335" y="195" text-anchor="middle" fill="#94a3b8" font-family="system-ui,sans-serif" font-size="10">3. Inference</text>
  <text x="467" y="195" text-anchor="middle" fill="#94a3b8" font-family="system-ui,sans-serif" font-size="10">4. Store</text>
</svg>
